<?xml version="1.0" encoding="UTF-8"?>
<svg width="32" height="32" viewBox="0 0 24 24" fill="none" xmlns="http://www.w3.org/2000/svg">
  <path d="M12 4.5C7.5 4.5 4 7.5 4 12C4 16.5 7.5 19.5 12 19.5C16.5 19.5 20 16.5 20 12C20 7.5 16.5 4.5 12 4.5Z" stroke="currentColor" stroke-width="2" stroke-linecap="round" stroke-linejoin="round"/>
  <path d="M12 8.5C10.3431 8.5 9 9.84315 9 11.5C9 13.1569 10.3431 14.5 12 14.5C13.6569 14.5 15 13.1569 15 11.5C15 9.84315 13.6569 8.5 12 8.5Z" stroke="currentColor" stroke-width="2" stroke-linecap="round" stroke-linejoin="round"/>
  <path d="M8 9.5C7.44772 9.5 7 9.94772 7 10.5C7 11.0523 7.44772 11.5 8 11.5C8.55228 11.5 9 11.0523 9 10.5C9 9.94772 8.55228 9.5 8 9.5Z" fill="currentColor"/>
  <path d="M16 9.5C15.4477 9.5 15 9.94772 15 10.5C15 11.0523 15.4477 11.5 16 11.5C16.5523 11.5 17 11.0523 17 10.5C17 9.94772 16.5523 9.5 16 9.5Z" fill="currentColor"/>
  <path d="M12 14.5V16.5" stroke="currentColor" stroke-width="2" stroke-linecap="round" stroke-linejoin="round"/>
  <path d="M9 12.5L7 13.5" stroke="currentColor" stroke-width="2" stroke-linecap="round" stroke-linejoin="round"/>
  <path d="M15 12.5L17 13.5" stroke="currentColor" stroke-width="2" stroke-linecap="round" stroke-linejoin="round"/>
</svg> 